Mirza-Bold.ufo
<glyph name="afghani-ar" format="1">
  <advance width="353"/>
  <unicode hex="060B"/>
  <outline>
    <contour>
      <point x="294" y="385"/>
      <point x="251" y="471"/>
      <point x="178" y="471" type="curve" smooth="yes"/>
      <point x="139" y="471"/>
      <point x="110" y="447"/>
      <point x="90" y="414" type="curve" smooth="yes"/>
      <point x="68" y="377"/>
      <point x="57" y="332"/>
      <point x="57" y="297" type="curve" smooth="yes"/>
      <point x="57" y="257"/>
      <point x="71" y="235"/>
      <point x="89" y="220" type="curve"/>
      <point x="108" y="202"/>
      <point x="137" y="193"/>
      <point x="171" y="193" type="curve" smooth="yes"/>
      <point x="194" y="193"/>
      <point x="216" y="197"/>
      <point x="228" y="201" type="curve"/>
      <point x="220" y="182"/>
      <point x="206" y="162"/>
      <point x="182" y="151" type="curve" smooth="yes"/>
      <point x="163" y="143"/>
      <point x="139" y="139"/>
      <point x="109" y="139" type="curve" smooth="yes"/>
      <point x="-80" y="139" type="line"/>
      <point x="-79" y="0" type="line"/>
      <point x="68" y="0" type="line" smooth="yes"/>
      <point x="135" y="0"/>
      <point x="185" y="12"/>
      <point x="221" y="42" type="curve" smooth="yes"/>
      <point x="248" y="64"/>
      <point x="273" y="99"/>
      <point x="289" y="158" type="curve" smooth="yes"/>
      <point x="301" y="201"/>
      <point x="306" y="252"/>
      <point x="302" y="297" type="curve" smooth="yes"/>
    </contour>
    <contour>
      <point x="208" y="301"/>
      <point x="195" y="296"/>
      <point x="170" y="296" type="curve" smooth="yes"/>
      <point x="124" y="296"/>
      <point x="116" y="314"/>
      <point x="116" y="330" type="curve" smooth="yes"/>
      <point x="116" y="354"/>
      <point x="134" y="375"/>
      <point x="162" y="375" type="curve" smooth="yes"/>
      <point x="207" y="375"/>
      <point x="218" y="318"/>
      <point x="220" y="311" type="curve"/>
    </contour>
    <component base="alefbelow-ar" xOffset="133" yOffset="229" xScale="1.25" yScale="1.25"/>
    <component base="dotabove-ar" xOffset="179" yOffset="-139"/>
  </outline>
</glyph>
<glyph name="comma-ar" format="1">
  <advance width="198"/>
  <unicode hex="060C"/>
  <outline>
    <contour>
      <point x="70" y="187"/>
      <point x="23" y="105"/>
      <point x="15" y="14" type="curve"/>
      <point x="47" y="-19" type="line"/>
      <point x="87" y="-19"/>
      <point x="132" y="-6"/>
      <point x="165" y="15" type="curve"/>
      <point x="153" y="42"/>
      <point x="147" y="74"/>
      <point x="147" y="111" type="curve" smooth="yes"/>
      <point x="147" y="151"/>
      <point x="160" y="190"/>
      <point x="183" y="217" type="curve"/>
      <point x="151" y="251" type="line"/>
    </contour>
  </outline>
</glyph>
<glyph name="tahabove-ar" format="1">
  <advance width="0"/>
  <unicode hex="0615"/>
  <outline>
    <contour>
      <point x="-61" y="859" type="line"/>
      <point x="-50" y="840"/>
      <point x="-40" y="795"/>
      <point x="-40" y="762" type="curve"/>
      <point x="-45" y="752" type="line"/>
      <point x="-77" y="752" type="line"/>
      <point x="-64" y="700" type="line"/>
      <point x="-18" y="700" type="line"/>
      <point x="3" y="700"/>
      <point x="27" y="709"/>
      <point x="45" y="722" type="curve" smooth="yes"/>
      <point x="66" y="738"/>
      <point x="76" y="758"/>
      <point x="76" y="778" type="curve" smooth="yes"/>
      <point x="76" y="800"/>
      <point x="50" y="817"/>
      <point x="32" y="817" type="curve" smooth="yes"/>
      <point x="17" y="817"/>
      <point x="-2" y="805"/>
      <point x="-17" y="783" type="curve"/>
      <point x="-14" y="798"/>
      <point x="-14" y="816"/>
      <point x="-16" y="829" type="curve"/>
      <point x="-18" y="844"/>
      <point x="-15" y="848"/>
      <point x="-2" y="852" type="curve"/>
      <point x="-14" y="866"/>
      <point x="-23" y="879"/>
      <point x="-30" y="896" type="curve"/>
    </contour>
    <contour>
      <point x="42" y="758"/>
      <point x="24" y="748"/>
      <point x="7" y="748" type="curve" smooth="yes"/>
      <point x="-19" y="748" type="line"/>
      <point x="-11" y="761"/>
      <point x="4" y="778"/>
      <point x="20" y="778" type="curve" smooth="yes"/>
      <point x="35" y="778"/>
      <point x="43" y="771"/>
      <point x="47" y="765" type="curve"/>
    </contour>
    <contour>
      <point x="-1" y="896" type="move" name="top"/>
    </contour>
    <contour>
      <point x="-1" y="670" type="move" name="_top"/>
    </contour>
  </outline>
</glyph>
<glyph name="seen-ar" format="1">
  <advance width="925"/>
  <unicode hex="0633"/>
  <outline>
    <contour>
      <point x="791" y="284"/>
      <point x="774" y="263"/>
      <point x="757" y="234" type="curve"/>
      <point x="805" y="165" type="line"/>
      <point x="797" y="149"/>
      <point x="781" y="135"/>
      <point x="752" y="135" type="curve" smooth="yes"/>
      <point x="692" y="135"/>
      <point x="685" y="179"/>
      <point x="695" y="240" type="curve"/>
      <point x="644" y="221" type="line"/>
      <point x="639" y="175"/>
      <point x="620" y="135"/>
      <point x="569" y="135" type="curve" smooth="yes"/>
      <point x="553" y="135"/>
      <point x="506" y="150"/>
      <point x="481" y="213" type="curve"/>
      <point x="454" y="183"/>
      <point x="428" y="147"/>
      <point x="408" y="109" type="curve"/>
      <point x="456" y="46"/>
      <point x="497" y="-13"/>
      <point x="497" y="-45" type="curve" smooth="yes"/>
      <point x="497" y="-80"/>
      <point x="458" y="-105"/>
      <point x="406" y="-119" type="curve" smooth="yes"/>
      <point x="375" y="-127"/>
      <point x="339" y="-131"/>
      <point x="304" y="-131" type="curve" smooth="yes"/>
      <point x="244" y="-131"/>
      <point x="187" y="-116"/>
      <point x="158" y="-81" type="curve" smooth="yes"/>
      <point x="131" y="-48"/>
      <point x="130" y="1"/>
      <point x="142" y="54" type="curve"/>
      <point x="99" y="69" type="line"/>
      <point x="79" y="28"/>
      <point x="64" y="-25"/>
      <point x="61" y="-68" type="curve" smooth="yes"/>
      <point x="59" y="-99"/>
      <point x="62" y="-134"/>
      <point x="75" y="-166" type="curve" smooth="yes"/>
      <point x="92" y="-207"/>
      <point x="123" y="-238"/>
      <point x="164" y="-258" type="curve" smooth="yes"/>
      <point x="200" y="-275"/>
      <point x="242" y="-284"/>
      <point x="295" y="-284" type="curve" smooth="yes"/>
      <point x="338" y="-284"/>
      <point x="374" y="-280"/>
      <point x="406" y="-270" type="curve" smooth="yes"/>
      <point x="454" y="-256"/>
      <point x="492" y="-228"/>
      <point x="519" y="-191" type="curve" smooth="yes"/>
      <point x="550" y="-148"/>
      <point x="568" y="-93"/>
      <point x="568" y="-29" type="curve" smooth="yes"/>
      <point x="568" y="-18"/>
      <point x="568" y="2"/>
      <point x="567" y="13" type="curve"/>
      <point x="588" y="7"/>
      <point x="609" y="8"/>
      <point x="626" y="15" type="curve" smooth="yes"/>
      <point x="642" y="22"/>
      <point x="655" y="35"/>
      <point x="662" y="53" type="curve"/>
      <point x="666" y="45"/>
      <point x="675" y="35"/>
      <point x="689" y="26" type="curve" smooth="yes"/>
      <point x="703" y="17"/>
      <point x="723" y="10"/>
      <point x="750" y="10" type="curve" smooth="yes"/>
      <point x="787" y="10"/>
      <point x="821" y="34"/>
      <point x="844" y="66" type="curve" smooth="yes"/>
      <point x="863" y="94"/>
      <point x="875" y="128"/>
      <point x="875" y="160" type="curve" smooth="yes"/>
      <point x="875" y="270"/>
      <point x="816" y="312"/>
      <point x="816" y="312" type="curve"/>
    </contour>
    <contour>
      <point x="655" y="270" type="move" name="top"/>
    </contour>
    <contour>
      <point x="305" y="-314" type="move" name="bottom"/>
    </contour>
  </outline>
</glyph>
<glyph name="sad-ar" format="1">
  <advance width="1028"/>
  <unicode hex="0635"/>
  <outline>
    <contour>
      <point x="978" y="278"/>
      <point x="962" y="306"/>
      <point x="933" y="329" type="curve" smooth="yes"/>
      <point x="909" y="348"/>
      <point x="878" y="360"/>
      <point x="854" y="360" type="curve" smooth="yes"/>
      <point x="775" y="360"/>
      <point x="697" y="283"/>
      <point x="667" y="250" type="curve" smooth="yes"/>
      <point x="622" y="200"/>
      <point x="590" y="154"/>
      <point x="580" y="138" type="curve"/>
      <point x="533" y="142"/>
      <point x="495" y="189"/>
      <point x="481" y="211" type="curve"/>
      <point x="454" y="181"/>
      <point x="428" y="145"/>
      <point x="408" y="107" type="curve"/>
      <point x="456" y="44"/>
      <point x="497" y="-15"/>
      <point x="497" y="-47" type="curve" smooth="yes"/>
      <point x="497" y="-85"/>
      <point x="454" y="-111"/>
      <point x="394" y="-124" type="curve" smooth="yes"/>
      <point x="367" y="-130"/>
      <point x="336" y="-133"/>
      <point x="304" y="-133" type="curve" smooth="yes"/>
      <point x="244" y="-133"/>
      <point x="187" y="-118"/>
      <point x="158" y="-83" type="curve" smooth="yes"/>
      <point x="131" y="-50"/>
      <point x="130" y="-1"/>
      <point x="142" y="52" type="curve"/>
      <point x="99" y="67" type="line"/>
      <point x="79" y="26"/>
      <point x="64" y="-27"/>
      <point x="61" y="-70" type="curve" smooth="yes"/>
      <point x="59" y="-101"/>
      <point x="62" y="-136"/>
      <point x="75" y="-168" type="curve" smooth="yes"/>
      <point x="92" y="-209"/>
      <point x="123" y="-240"/>
      <point x="164" y="-260" type="curve" smooth="yes"/>
      <point x="200" y="-277"/>
      <point x="242" y="-286"/>
      <point x="295" y="-286" type="curve" smooth="yes"/>
      <point x="402" y="-286"/>
      <point x="460" y="-256"/>
      <point x="500" y="-216" type="curve" smooth="yes"/>
      <point x="558" y="-160"/>
      <point x="572" y="-83"/>
      <point x="572" y="-46" type="curve" smooth="yes"/>
      <point x="572" y="-27"/>
      <point x="572" y="-8"/>
      <point x="569" y="12" type="curve"/>
      <point x="584" y="7"/>
      <point x="601" y="5"/>
      <point x="620" y="3" type="curve" smooth="yes"/>
      <point x="637" y="2"/>
      <point x="656" y="2"/>
      <point x="677" y="2" type="curve" smooth="yes"/>
      <point x="743" y="2"/>
      <point x="818" y="29"/>
      <point x="877" y="75" type="curve" smooth="yes"/>
      <point x="907" y="98"/>
      <point x="932" y="125"/>
      <point x="949" y="153" type="curve" smooth="yes"/>
      <point x="969" y="184"/>
      <point x="978" y="217"/>
      <point x="978" y="249" type="curve" smooth="yes"/>
    </contour>
    <contour>
      <point x="879" y="186"/>
      <point x="857" y="164"/>
      <point x="816" y="151" type="curve" smooth="yes"/>
      <point x="796" y="144"/>
      <point x="772" y="139"/>
      <point x="742" y="139" type="curve" smooth="yes"/>
      <point x="653" y="139" type="line"/>
      <point x="664" y="156"/>
      <point x="679" y="174"/>
      <point x="698" y="193" type="curve" smooth="yes"/>
      <point x="726" y="222"/>
      <point x="759" y="249"/>
      <point x="807" y="249" type="curve" smooth="yes"/>
      <point x="827" y="249"/>
      <point x="842" y="244"/>
      <point x="853" y="236" type="curve" smooth="yes"/>
      <point x="872" y="223"/>
      <point x="881" y="201"/>
      <point x="884" y="191" type="curve"/>
    </contour>
    <contour>
      <point x="834" y="390" type="move" name="top"/>
    </contour>
    <contour>
      <point x="305" y="-316" type="move" name="bottom"/>
    </contour>
  </outline>
</glyph>
<glyph name="waw-ar" format="1">
  <advance width="389"/>
  <unicode hex="0648"/>
  <outline>
    <contour>
      <point x="304" y="324"/>
      <point x="274" y="371"/>
      <point x="216" y="371" type="curve" smooth="yes"/>
      <point x="185" y="371"/>
      <point x="156" y="348"/>
      <point x="134" y="315" type="curve" smooth="yes"/>
      <point x="113" y="283"/>
      <point x="99" y="240"/>
      <point x="99" y="199" type="curve" smooth="yes"/>
      <point x="99" y="171"/>
      <point x="102" y="130"/>
      <point x="131" y="103" type="curve" smooth="yes"/>
      <point x="148" y="87"/>
      <point x="175" y="76"/>
      <point x="216" y="76" type="curve" smooth="yes"/>
      <point x="238" y="76"/>
      <point x="254" y="81"/>
      <point x="265" y="86" type="curve"/>
      <point x="263" y="56"/>
      <point x="248" y="26"/>
      <point x="226" y="-2" type="curve" smooth="yes"/>
      <point x="202" y="-34"/>
      <point x="167" y="-61"/>
      <point x="130" y="-84" type="curve" smooth="yes"/>
      <point x="63" y="-126"/>
      <point x="-6" y="-159"/>
      <point x="-20" y="-165" type="curve"/>
      <point x="10" y="-208" type="line"/>
      <point x="29" y="-202"/>
      <point x="68" y="-197"/>
      <point x="92" y="-197" type="curve" smooth="yes"/>
      <point x="106" y="-197"/>
      <point x="125" y="-200"/>
      <point x="138" y="-200" type="curve" smooth="yes"/>
      <point x="180" y="-200"/>
      <point x="207" y="-192"/>
      <point x="232" y="-175" type="curve" smooth="yes"/>
      <point x="255" y="-159"/>
      <point x="280" y="-133"/>
      <point x="300" y="-92" type="curve" smooth="yes"/>
      <point x="312" y="-67"/>
      <point x="322" y="-38"/>
      <point x="329" y="-2" type="curve" smooth="yes"/>
      <point x="335" y="30"/>
      <point x="339" y="67"/>
      <point x="339" y="110" type="curve" smooth="yes"/>
      <point x="339" y="146"/>
      <point x="337" y="211"/>
      <point x="321" y="267" type="curve" smooth="yes"/>
    </contour>
    <contour>
      <point x="255" y="227"/>
      <point x="259" y="205"/>
      <point x="259" y="205" type="curve"/>
      <point x="252" y="201"/>
      <point x="236" y="190"/>
      <point x="211" y="190" type="curve" smooth="yes"/>
      <point x="154" y="190"/>
      <point x="151" y="208"/>
      <point x="151" y="230" type="curve" smooth="yes"/>
      <point x="151" y="245"/>
      <point x="164" y="273"/>
      <point x="199" y="273" type="curve" smooth="yes"/>
      <point x="217" y="273"/>
      <point x="232" y="260"/>
      <point x="241" y="247" type="curve" smooth="yes"/>
    </contour>
    <contour>
      <point x="216" y="401" type="move" name="top"/>
    </contour>
    <contour>
      <point x="118" y="-230" type="move" name="bottom"/>
    </contour>
    <contour>
      <point x="83" y="11" type="move" name="center"/>
    </contour>
  </outline>
</glyph>
<glyph name="fathatan-ar" format="1">
  <advance width="0"/>
  <unicode hex="064B"/>
  <outline>
    <contour>
      <point x="56" y="800"/>
      <point x="-44" y="762"/>
      <point x="-79" y="742" type="curve"/>
      <point x="-84" y="731"/>
      <point x="-89" y="714"/>
      <point x="-92" y="700" type="curve"/>
      <point x="-52" y="717"/>
      <point x="43" y="757"/>
      <point x="79" y="769" type="curve"/>
      <point x="86" y="785"/>
      <point x="88" y="793"/>
      <point x="91" y="809" type="curve"/>
    </contour>
    <contour>
      <point x="56" y="874"/>
      <point x="-44" y="836"/>
      <point x="-79" y="816" type="curve"/>
      <point x="-84" y="806"/>
      <point x="-89" y="788"/>
      <point x="-92" y="774" type="curve"/>
      <point x="-52" y="791"/>
      <point x="43" y="832"/>
      <point x="79" y="843" type="curve"/>
      <point x="86" y="860"/>
      <point x="88" y="867"/>
      <point x="91" y="883" type="curve"/>
    </contour>
    <contour>
      <point x="-1" y="883" type="move" name="top"/>
    </contour>
    <contour>
      <point x="-1" y="670" type="move" name="_top"/>
    </contour>
  </outline>
</glyph>
<glyph name="kasratan-ar" format="1">
  <advance width="0"/>
  <unicode hex="064D"/>
  <outline>
    <contour>
      <point x="-51" y="-365"/>
      <point x="44" y="-324"/>
      <point x="80" y="-312" type="curve"/>
      <point x="87" y="-296"/>
      <point x="89" y="-288"/>
      <point x="92" y="-272" type="curve"/>
      <point x="57" y="-281"/>
      <point x="-43" y="-319"/>
      <point x="-78" y="-339" type="curve"/>
      <point x="-83" y="-350"/>
      <point x="-88" y="-367"/>
      <point x="-91" y="-381" type="curve"/>
    </contour>
    <contour>
      <point x="-51" y="-290"/>
      <point x="44" y="-249"/>
      <point x="80" y="-238" type="curve"/>
      <point x="87" y="-221"/>
      <point x="89" y="-214"/>
      <point x="92" y="-198" type="curve"/>
      <point x="57" y="-207"/>
      <point x="-43" y="-245"/>
      <point x="-78" y="-265" type="curve"/>
      <point x="-83" y="-275"/>
      <point x="-88" y="-293"/>
      <point x="-91" y="-307" type="curve"/>
    </contour>
    <contour>
      <point x="1" y="-168" type="move" name="_bottom"/>
    </contour>
    <contour>
      <point x="1" y="-381" type="move" name="bottom"/>
    </contour>
  </outline>
</glyph>
<glyph name="hamzabelow-ar" format="1">
  <advance width="0"/>
  <unicode hex="0655"/>
  <outline>
    <contour>
      <point x="80" y="-286"/>
      <point x="65" y="-289"/>
      <point x="50" y="-291" type="curve" smooth="yes"/>
      <point x="32" y="-293"/>
      <point x="25" y="-294"/>
      <point x="9" y="-290" type="curve" smooth="yes"/>
      <point x="-13" y="-284"/>
      <point x="-20" y="-273"/>
      <point x="-22" y="-268" type="curve"/>
      <point x="-15" y="-264"/>
      <point x="1" y="-256"/>
      <point x="22" y="-256" type="curve" smooth="yes"/>
      <point x="32" y="-256"/>
      <point x="42" y="-259"/>
      <point x="53" y="-263" type="curve"/>
      <point x="67" y="-249" type="line"/>
      <point x="65" y="-229"/>
      <point x="52" y="-209"/>
      <point x="18" y="-209" type="curve" smooth="yes"/>
      <point x="-2" y="-209"/>
      <point x="-22" y="-216"/>
      <point x="-42" y="-232" type="curve" smooth="yes"/>
      <point x="-55" y="-243"/>
      <point x="-67" y="-257"/>
      <point x="-71" y="-262" type="curve" smooth="yes"/>
      <point x="-75" y="-268"/>
      <point x="-77" y="-274"/>
      <point x="-77" y="-281" type="curve" smooth="yes"/>
      <point x="-77" y="-294"/>
      <point x="-68" y="-310"/>
      <point x="-44" y="-321" type="curve"/>
      <point x="-59" y="-329"/>
      <point x="-79" y="-342"/>
      <point x="-88" y="-355" type="curve" smooth="yes"/>
      <point x="-93" y="-362"/>
      <point x="-92" y="-368"/>
      <point x="-91" y="-372" type="curve" smooth="yes"/>
      <point x="-88" y="-383"/>
      <point x="-75" y="-384"/>
      <point x="-75" y="-384" type="curve" smooth="yes"/>
      <point x="-75" y="-384"/>
      <point x="-42" y="-363"/>
      <point x="-5" y="-351" type="curve" smooth="yes"/>
      <point x="18" y="-342"/>
      <point x="43" y="-335"/>
      <point x="67" y="-334" type="curve"/>
      <point x="79" y="-316"/>
      <point x="87" y="-304"/>
      <point x="95" y="-284" type="curve"/>
    </contour>
    <contour>
      <point x="2" y="-179" type="move" name="_bottom"/>
    </contour>
    <contour>
      <point x="2" y="-384" type="move" name="bottom"/>
    </contour>
  </outline>
</glyph>
<glyph name="four-ar" format="1">
  <advance width="413"/>
  <unicode hex="0664"/>
  <outline>
    <contour>
      <point x="320" y="134" type="line"/>
      <point x="299" y="106"/>
      <point x="284" y="96"/>
      <point x="239" y="96" type="curve" smooth="yes"/>
      <point x="194" y="96"/>
      <point x="175" y="124"/>
      <point x="169" y="136" type="curve"/>
      <point x="177" y="147"/>
      <point x="194" y="168"/>
      <point x="211" y="192" type="curve" smooth="yes"/>
      <point x="243" y="238"/>
      <point x="259" y="271"/>
      <point x="259" y="292" type="curve" smooth="yes"/>
      <point x="259" y="309"/>
      <point x="241" y="322"/>
      <point x="216" y="336" type="curve" smooth="yes"/>
      <point x="207" y="341"/>
      <point x="187" y="350"/>
      <point x="170" y="361" type="curve" smooth="yes"/>
      <point x="156" y="371"/>
      <point x="144" y="382"/>
      <point x="140" y="395" type="curve"/>
      <point x="166" y="423"/>
      <point x="203" y="442"/>
      <point x="257" y="461" type="curve"/>
      <point x="266" y="506"/>
      <point x="271" y="536"/>
      <point x="271" y="580" type="curve"/>
      <point x="165" y="535"/>
      <point x="90" y="469"/>
      <point x="55" y="367" type="curve" smooth="yes"/>
      <point x="42" y="327"/>
      <point x="60" y="297"/>
      <point x="108" y="276" type="curve" smooth="yes"/>
      <point x="144" y="261"/>
      <point x="154" y="254"/>
      <point x="154" y="246" type="curve" smooth="yes"/>
      <point x="154" y="224"/>
      <point x="50" y="140"/>
      <point x="50" y="77" type="curve" smooth="yes"/>
      <point x="50" y="60"/>
      <point x="77" y="0"/>
      <point x="196" y="0" type="curve" smooth="yes"/>
      <point x="290" y="0"/>
      <point x="344" y="53"/>
      <point x="373" y="153" type="curve"/>
    </contour>
  </outline>
</glyph>
<glyph name="uHamzaabove-ar" format="1">
  <advance width="384"/>
  <unicode hex="0677"/>
  <outline>
    <contour>
      <point x="154" y="499"/>
      <point x="141" y="496"/>
      <point x="129" y="495" type="curve" smooth="yes"/>
      <point x="114" y="493"/>
      <point x="108" y="492"/>
      <point x="95" y="496" type="curve" smooth="yes"/>
      <point x="76" y="501"/>
      <point x="70" y="510"/>
      <point x="69" y="514" type="curve"/>
      <point x="75" y="517"/>
      <point x="88" y="524"/>
      <point x="105" y="524" type="curve" smooth="yes"/>
      <point x="114" y="524"/>
      <point x="122" y="521"/>
      <point x="131" y="518" type="curve"/>
      <point x="143" y="530" type="line"/>
      <point x="141" y="546"/>
      <point x="130" y="563"/>
      <point x="102" y="563" type="curve" smooth="yes"/>
      <point x="85" y="563"/>
      <point x="69" y="557"/>
      <point x="52" y="544" type="curve" smooth="yes"/>
      <point x="41" y="535"/>
      <point x="31" y="523"/>
      <point x="28" y="519" type="curve" smooth="yes"/>
      <point x="25" y="514"/>
      <point x="23" y="510"/>
      <point x="23" y="504" type="curve" smooth="yes"/>
      <point x="23" y="493"/>
      <point x="30" y="479"/>
      <point x="50" y="471" type="curve"/>
      <point x="38" y="463"/>
      <point x="21" y="452"/>
      <point x="14" y="441" type="curve" smooth="yes"/>
      <point x="10" y="436"/>
      <point x="10" y="431"/>
      <point x="11" y="427" type="curve" smooth="yes"/>
      <point x="14" y="420"/>
      <point x="19" y="417"/>
      <point x="25" y="417" type="curve" smooth="yes"/>
      <point x="25" y="417"/>
      <point x="52" y="435"/>
      <point x="83" y="445" type="curve" smooth="yes"/>
      <point x="102" y="452"/>
      <point x="123" y="458"/>
      <point x="143" y="459" type="curve"/>
      <point x="153" y="474"/>
      <point x="160" y="484"/>
      <point x="166" y="501" type="curve"/>
    </contour>
    <contour>
      <point x="292" y="491" type="line"/>
      <point x="304" y="517"/>
      <point x="313" y="553"/>
      <point x="286" y="566" type="curve" smooth="yes"/>
      <point x="268" y="576"/>
      <point x="245" y="568"/>
      <point x="225" y="543" type="curve" smooth="yes"/>
      <point x="213" y="529"/>
      <point x="209" y="515"/>
      <point x="212" y="502" type="curve" smooth="yes"/>
      <point x="216" y="486"/>
      <point x="230" y="476"/>
      <point x="240" y="471" type="curve"/>
      <point x="223" y="457"/>
      <point x="199" y="452"/>
      <point x="170" y="456" type="curve"/>
      <point x="161" y="443"/>
      <point x="159" y="433"/>
      <point x="153" y="417" type="curve"/>
      <point x="214" y="414"/>
      <point x="236" y="425"/>
      <point x="250" y="436" type="curve" smooth="yes"/>
      <point x="262" y="443"/>
      <point x="270" y="452"/>
      <point x="275" y="458" type="curve"/>
      <point x="304" y="446" type="line"/>
      <point x="305" y="466"/>
      <point x="305" y="471"/>
      <point x="304" y="486" type="curve"/>
    </contour>
    <contour>
      <point x="255" y="506" type="line" smooth="yes"/>
      <point x="245" y="511"/>
      <point x="240" y="519"/>
      <point x="240" y="524" type="curve" smooth="yes"/>
      <point x="239" y="529"/>
      <point x="243" y="536"/>
      <point x="252" y="539" type="curve" smooth="yes"/>
      <point x="258" y="540"/>
      <point x="263" y="539"/>
      <point x="270" y="533" type="curve" smooth="yes"/>
      <point x="276" y="527"/>
      <point x="277" y="511"/>
      <point x="270" y="499" type="curve"/>
    </contour>
    <component base="waw-ar"/>
    <contour>
      <point x="160" y="594" type="move" name="top"/>
    </contour>
  </outline>
</glyph>
<glyph name="dotlessfeh-ar" format="1">
  <advance width="843"/>
  <unicode hex="06A1"/>
  <outline>
    <contour>
      <point x="629" y="461"/>
      <point x="600" y="437"/>
      <point x="580" y="404" type="curve" smooth="yes"/>
      <point x="558" y="367"/>
      <point x="547" y="321"/>
      <point x="547" y="287" type="curve" smooth="yes"/>
      <point x="547" y="252"/>
      <point x="559" y="226"/>
      <point x="579" y="209" type="curve" smooth="yes"/>
      <point x="599" y="192"/>
      <point x="629" y="183"/>
      <point x="662" y="183" type="curve" smooth="yes"/>
      <point x="684" y="183"/>
      <point x="706" y="187"/>
      <point x="718" y="191" type="curve"/>
      <point x="710" y="172"/>
      <point x="695" y="157"/>
      <point x="672" y="147" type="curve" smooth="yes"/>
      <point x="653" y="139"/>
      <point x="630" y="135"/>
      <point x="599" y="135" type="curve" smooth="yes"/>
      <point x="582" y="135"/>
      <point x="426" y="134"/>
      <point x="419" y="134" type="curve"/>
      <point x="393" y="134"/>
      <point x="291" y="134"/>
      <point x="244" y="140" type="curve" smooth="yes"/>
      <point x="214" y="144"/>
      <point x="167" y="156"/>
      <point x="141" y="183" type="curve" smooth="yes"/>
      <point x="126" y="199"/>
      <point x="113" y="223"/>
      <point x="111" y="258" type="curve"/>
      <point x="66" y="269" type="line"/>
      <point x="56" y="198"/>
      <point x="58" y="144"/>
      <point x="79" y="100" type="curve" smooth="yes"/>
      <point x="104" y="47"/>
      <point x="155" y="13"/>
      <point x="240" y="-1" type="curve"/>
      <point x="277" y="-7"/>
      <point x="334" y="-10"/>
      <point x="420" y="-10" type="curve" smooth="yes"/>
      <point x="584" y="-10"/>
      <point x="664" y="1"/>
      <point x="712" y="39" type="curve" smooth="yes"/>
      <point x="742" y="63"/>
      <point x="765" y="99"/>
      <point x="779" y="148" type="curve" smooth="yes"/>
      <point x="791" y="191"/>
      <point x="796" y="241"/>
      <point x="792" y="287" type="curve" smooth="yes"/>
      <point x="784" y="375"/>
      <point x="741" y="461"/>
      <point x="668" y="461" type="curve" smooth="yes"/>
    </contour>
    <contour>
      <point x="694" y="288"/>
      <point x="681" y="283"/>
      <point x="656" y="283" type="curve" smooth="yes"/>
      <point x="610" y="283"/>
      <point x="602" y="301"/>
      <point x="602" y="317" type="curve" smooth="yes"/>
      <point x="602" y="341"/>
      <point x="620" y="362"/>
      <point x="648" y="362" type="curve" smooth="yes"/>
      <point x="693" y="362"/>
      <point x="704" y="305"/>
      <point x="706" y="298" type="curve"/>
    </contour>
    <contour>
      <point x="668" y="491" type="move" name="top"/>
    </contour>
    <contour>
      <point x="405" y="-49" type="move" name="bottom"/>
    </contour>
  </outline>
</glyph>
<glyph name="qafLamAlefMaksuraabove-ar" format="1">
  <advance width="0"/>
  <unicode hex="06D7"/>
  <outline>
    <contour>
      <point x="134" y="871"/>
      <point x="123" y="893"/>
      <point x="104" y="893" type="curve" smooth="yes"/>
      <point x="94" y="893"/>
      <point x="87" y="887"/>
      <point x="82" y="879" type="curve" smooth="yes"/>
      <point x="76" y="869"/>
      <point x="73" y="858"/>
      <point x="73" y="849" type="curve" smooth="yes"/>
      <point x="73" y="838"/>
      <point x="77" y="833"/>
      <point x="81" y="829" type="curve"/>
      <point x="86" y="824"/>
      <point x="94" y="822"/>
      <point x="102" y="822" type="curve" smooth="yes"/>
      <point x="108" y="822"/>
      <point x="114" y="823"/>
      <point x="117" y="824" type="curve"/>
      <point x="115" y="819"/>
      <point x="111" y="814"/>
      <point x="105" y="811" type="curve" smooth="yes"/>
      <point x="100" y="809"/>
      <point x="94" y="808"/>
      <point x="87" y="808" type="curve" smooth="yes"/>
      <point x="83" y="808"/>
      <point x="50" y="808"/>
      <point x="50" y="808" type="curve" smooth="yes"/>
      <point x="45" y="808"/>
      <point x="41" y="810"/>
      <point x="39" y="813" type="curve" smooth="yes"/>
      <point x="36" y="816"/>
      <point x="35" y="820"/>
      <point x="35" y="824" type="curve" smooth="yes"/>
      <point x="34" y="835"/>
      <point x="26" y="909"/>
      <point x="24" y="928" type="curve"/>
      <point x="14" y="917"/>
      <point x="8" y="909"/>
      <point x="0" y="895" type="curve"/>
      <point x="4" y="876"/>
      <point x="9" y="841"/>
      <point x="12" y="822" type="curve"/>
      <point x="12" y="819"/>
      <point x="11" y="816"/>
      <point x="9" y="813" type="curve" smooth="yes"/>
      <point x="6" y="810"/>
      <point x="1" y="808"/>
      <point x="-4" y="808" type="curve" smooth="yes"/>
      <point x="-41" y="808" type="line" smooth="yes"/>
      <point x="-53" y="808"/>
      <point x="-62" y="805"/>
      <point x="-69" y="802" type="curve" smooth="yes"/>
      <point x="-76" y="798"/>
      <point x="-80" y="794"/>
      <point x="-82" y="791" type="curve"/>
      <point x="-87" y="787"/>
      <point x="-94" y="783"/>
      <point x="-106" y="777" type="curve" smooth="yes"/>
      <point x="-114" y="773"/>
      <point x="-124" y="768"/>
      <point x="-132" y="762" type="curve" smooth="yes"/>
      <point x="-139" y="756"/>
      <point x="-148" y="748"/>
      <point x="-148" y="732" type="curve" smooth="yes"/>
      <point x="-148" y="727"/>
      <point x="-147" y="718"/>
      <point x="-136" y="710" type="curve" smooth="yes"/>
      <point x="-126" y="704"/>
      <point x="-112" y="700"/>
      <point x="-93" y="700" type="curve" smooth="yes"/>
      <point x="36" y="700" type="line"/>
      <point x="46" y="712"/>
      <point x="53" y="722"/>
      <point x="59" y="736" type="curve"/>
      <point x="-96" y="736" type="line" smooth="yes"/>
      <point x="-115" y="736"/>
      <point x="-121" y="738"/>
      <point x="-121" y="742" type="curve" smooth="yes"/>
      <point x="-121" y="745"/>
      <point x="-119" y="747"/>
      <point x="-117" y="748" type="curve"/>
      <point x="-110" y="750"/>
      <point x="-105" y="752"/>
      <point x="-102" y="754" type="curve" smooth="yes"/>
      <point x="-96" y="757"/>
      <point x="-87" y="764"/>
      <point x="-84" y="766" type="curve"/>
      <point x="-83" y="767"/>
      <point x="-77" y="773"/>
      <point x="-64" y="773" type="curve" smooth="yes"/>
      <point x="3" y="773" type="line" smooth="yes"/>
      <point x="21" y="773"/>
      <point x="28" y="785"/>
      <point x="29" y="786" type="curve"/>
      <point x="30" y="785"/>
      <point x="37" y="773"/>
      <point x="56" y="773" type="curve" smooth="yes"/>
      <point x="76" y="773" type="line" smooth="yes"/>
      <point x="93" y="773"/>
      <point x="106" y="776"/>
      <point x="115" y="783" type="curve" smooth="yes"/>
      <point x="122" y="789"/>
      <point x="129" y="798"/>
      <point x="133" y="813" type="curve" smooth="yes"/>
      <point x="136" y="824"/>
      <point x="137" y="837"/>
      <point x="136" y="849" type="curve" smooth="yes"/>
    </contour>
    <contour>
      <point x="113" y="848"/>
      <point x="109" y="847"/>
      <point x="103" y="847" type="curve" smooth="yes"/>
      <point x="91" y="847"/>
      <point x="89" y="852"/>
      <point x="89" y="856" type="curve" smooth="yes"/>
      <point x="89" y="862"/>
      <point x="94" y="868"/>
      <point x="101" y="868" type="curve" smooth="yes"/>
      <point x="113" y="868"/>
      <point x="115" y="853"/>
      <point x="115" y="851" type="curve"/>
    </contour>
    <contour>
      <point x="129" y="922"/>
      <point x="122" y="930"/>
      <point x="114" y="934" type="curve"/>
      <point x="113" y="931"/>
      <point x="106" y="925"/>
      <point x="102" y="920" type="curve"/>
      <point x="98" y="925"/>
      <point x="92" y="930"/>
      <point x="86" y="934" type="curve"/>
      <point x="84" y="931"/>
      <point x="74" y="921"/>
      <point x="70" y="917" type="curve"/>
      <point x="77" y="912"/>
      <point x="83" y="905"/>
      <point x="88" y="900" type="curve"/>
      <point x="92" y="903"/>
      <point x="99" y="910"/>
      <point x="102" y="914" type="curve"/>
      <point x="108" y="909"/>
      <point x="113" y="904"/>
      <point x="116" y="900" type="curve"/>
      <point x="122" y="904"/>
      <point x="130" y="913"/>
      <point x="132" y="916" type="curve"/>
    </contour>
    <contour>
      <point x="-6" y="934" type="move" name="top"/>
    </contour>
    <contour>
      <point x="-6" y="680" type="move" name="_top"/>
    </contour>
  </outline>
</glyph>
<glyph name="meemStopabove-ar" format="1">
  <advance width="0"/>
  <unicode hex="06E2"/>
  <outline>
    <contour>
      <point x="54" y="885"/>
      <point x="45" y="897"/>
      <point x="33" y="905" type="curve" smooth="yes"/>
      <point x="26" y="910"/>
      <point x="17" y="914"/>
      <point x="8" y="914" type="curve" smooth="yes"/>
      <point x="-5" y="914"/>
      <point x="-14" y="907"/>
      <point x="-19" y="893" type="curve" smooth="yes"/>
      <point x="-22" y="888"/>
      <point x="-23" y="882"/>
      <point x="-23" y="877" type="curve"/>
      <point x="-19" y="880"/>
      <point x="-3" y="885"/>
      <point x="9" y="879" type="curve"/>
      <point x="-15" y="876"/>
      <point x="-34" y="861"/>
      <point x="-41" y="842" type="curve" smooth="yes"/>
      <point x="-44" y="833"/>
      <point x="-45" y="823"/>
      <point x="-44" y="811" type="curve" smooth="yes"/>
      <point x="-42" y="799"/>
      <point x="-40" y="786"/>
      <point x="-38" y="772" type="curve" smooth="yes"/>
      <point x="-36" y="761"/>
      <point x="-31" y="727"/>
      <point x="-28" y="702" type="curve"/>
      <point x="-11" y="708" type="line"/>
      <point x="-11" y="745"/>
      <point x="-12" y="780"/>
      <point x="-17" y="810" type="curve" smooth="yes"/>
      <point x="-18" y="819"/>
      <point x="-16" y="825"/>
      <point x="-11" y="831" type="curve" smooth="yes"/>
      <point x="-6" y="837"/>
      <point x="4" y="841"/>
      <point x="16" y="844" type="curve" smooth="yes"/>
      <point x="22" y="845"/>
      <point x="36" y="846"/>
      <point x="48" y="846" type="curve"/>
      <point x="52" y="860"/>
      <point x="54" y="873"/>
      <point x="54" y="885" type="curve"/>
    </contour>
    <contour>
      <point x="5" y="914" type="move" name="top"/>
    </contour>
    <contour>
      <point x="5" y="682" type="move" name="_top"/>
    </contour>
  </outline>
</glyph>
<glyph name="yehbelow-ar" format="1">
  <advance width="0"/>
  <unicode hex="06E6"/>
  <outline>
    <contour>
      <point x="-3" y="-252"/>
      <point x="0" y="-234"/>
      <point x="-9" y="-220" type="curve" smooth="yes"/>
      <point x="-14" y="-214"/>
      <point x="-21" y="-210"/>
      <point x="-27" y="-210" type="curve" smooth="yes"/>
      <point x="-37" y="-210"/>
      <point x="-44" y="-219"/>
      <point x="-51" y="-228" type="curve" smooth="yes"/>
      <point x="-60" y="-242"/>
      <point x="-63" y="-246"/>
      <point x="-90" y="-259" type="curve" smooth="yes"/>
      <point x="-102" y="-265"/>
      <point x="-116" y="-271"/>
      <point x="-127" y="-280" type="curve" smooth="yes"/>
      <point x="-138" y="-290"/>
      <point x="-147" y="-302"/>
      <point x="-147" y="-318" type="curve" smooth="yes"/>
      <point x="-147" y="-331"/>
      <point x="-142" y="-342"/>
      <point x="-130" y="-349" type="curve" smooth="yes"/>
      <point x="-118" y="-356"/>
      <point x="-100" y="-360"/>
      <point x="-74" y="-360" type="curve" smooth="yes"/>
      <point x="116" y="-360" type="line"/>
      <point x="129" y="-345"/>
      <point x="137" y="-331"/>
      <point x="145" y="-314" type="curve"/>
      <point x="-73" y="-314" type="line" smooth="yes"/>
      <point x="-104" y="-314"/>
      <point x="-111" y="-312"/>
      <point x="-111" y="-305" type="curve" smooth="yes"/>
      <point x="-111" y="-301"/>
      <point x="-108" y="-299"/>
      <point x="-105" y="-297" type="curve"/>
      <point x="-72" y="-285"/>
      <point x="-65" y="-277"/>
      <point x="-52" y="-262" type="curve" smooth="yes"/>
      <point x="-48" y="-259"/>
      <point x="-40" y="-246"/>
      <point x="-31" y="-246" type="curve" smooth="yes"/>
      <point x="-21" y="-246"/>
      <point x="-19" y="-263"/>
      <point x="-24" y="-283" type="curve"/>
      <point x="-6" y="-277" type="line"/>
    </contour>
    <contour>
      <point x="-1" y="-190" type="move" name="_bottom"/>
    </contour>
    <contour>
      <point x="-1" y="-360" type="move" name="bottom"/>
    </contour>
  </outline>
</glyph>
<glyph name="four-persian" format="1">
  <advance width="434"/>
  <unicode hex="06F4"/>
  <outline>
    <contour>
      <point x="356" y="439"/>
      <point x="342" y="432"/>
      <point x="306" y="435" type="curve" smooth="yes"/>
      <point x="280" y="437"/>
      <point x="255" y="444"/>
      <point x="226" y="468" type="curve"/>
      <point x="243" y="491"/>
      <point x="263" y="509"/>
      <point x="296" y="509" type="curve" smooth="yes"/>
      <point x="319" y="509"/>
      <point x="336" y="504"/>
      <point x="356" y="492" type="curve"/>
      <point x="368" y="527" type="line"/>
      <point x="343" y="560"/>
      <point x="319" y="580"/>
      <point x="274" y="580" type="curve" smooth="yes"/>
      <point x="201" y="580"/>
      <point x="173" y="526"/>
      <point x="165" y="507" type="curve"/>
      <point x="149" y="531"/>
      <point x="137" y="549"/>
      <point x="122" y="580" type="curve"/>
      <point x="87" y="538"/>
      <point x="71" y="512"/>
      <point x="50" y="468" type="curve"/>
      <point x="82" y="412"/>
      <point x="106" y="352"/>
      <point x="122" y="288" type="curve" smooth="yes"/>
      <point x="146" y="194"/>
      <point x="154" y="103"/>
      <point x="148" y="0" type="curve"/>
      <point x="204" y="0" type="line"/>
      <point x="222" y="77"/>
      <point x="230" y="143"/>
      <point x="234" y="206" type="curve" smooth="yes"/>
      <point x="239" y="275"/>
      <point x="224" y="338"/>
      <point x="220" y="358" type="curve"/>
      <point x="234" y="353"/>
      <point x="254" y="347"/>
      <point x="281" y="347" type="curve" smooth="yes"/>
      <point x="332" y="347"/>
      <point x="381" y="392"/>
      <point x="394" y="420" type="curve"/>
      <point x="380" y="447" type="line"/>
    </contour>
  </outline>
</glyph>
<glyph name="whiteInBlackSquare" format="1">
  <advance width="433"/>
  <unicode hex="25A3"/>
  <outline>
    <contour>
      <point x="383" y="333" type="line"/>
      <point x="50" y="333" type="line"/>
      <point x="50" y="0" type="line"/>
      <point x="383" y="0" type="line"/>
    </contour>
    <contour>
      <point x="110" y="273" type="line"/>
      <point x="323" y="273" type="line"/>
      <point x="323" y="60" type="line"/>
      <point x="110" y="60" type="line"/>
    </contour>
    <contour>
      <point x="292" y="242" type="line"/>
      <point x="141" y="242" type="line"/>
      <point x="141" y="91" type="line"/>
      <point x="292" y="91" type="line"/>
    </contour>
  </outline>
</glyph>
<glyph name="seen_meem-ar" format="1">
  <advance width="869"/>
  <unicode hex="FC1F"/>
  <outline>
    <contour>
      <point x="737" y="286"/>
      <point x="721" y="264"/>
      <point x="701" y="234" type="curve"/>
      <point x="750" y="165" type="line"/>
      <point x="738" y="145"/>
      <point x="726" y="135"/>
      <point x="697" y="135" type="curve" smooth="yes"/>
      <point x="684" y="135"/>
      <point x="662" y="137"/>
      <point x="650" y="150" type="curve"/>
      <point x="638" y="162"/>
      <point x="635" y="184"/>
      <point x="636" y="204" type="curve"/>
      <point x="637" y="216"/>
      <point x="639" y="228"/>
      <point x="640" y="240" type="curve"/>
      <point x="589" y="221" type="line"/>
      <point x="589" y="217"/>
      <point x="589" y="193"/>
      <point x="581" y="174" type="curve" smooth="yes"/>
      <point x="572" y="153"/>
      <point x="554" y="132"/>
      <point x="505" y="132" type="curve" smooth="yes"/>
      <point x="468" y="132"/>
      <point x="447" y="143"/>
      <point x="410" y="180" type="curve" smooth="yes"/>
      <point x="390" y="201"/>
      <point x="357" y="225"/>
      <point x="317" y="225" type="curve" smooth="yes"/>
      <point x="259" y="225"/>
      <point x="214" y="174"/>
      <point x="197" y="150" type="curve" smooth="yes"/>
      <point x="177" y="123"/>
      <point x="154" y="80"/>
      <point x="148" y="43" type="curve"/>
      <point x="109" y="21"/>
      <point x="84" y="-5"/>
      <point x="66" y="-38" type="curve" smooth="yes"/>
      <point x="50" y="-70"/>
      <point x="40" y="-111"/>
      <point x="47" y="-154" type="curve" smooth="yes"/>
      <point x="75" y="-332"/>
      <point x="87" y="-425"/>
      <point x="94" y="-508" type="curve"/>
      <point x="156" y="-482" type="line"/>
      <point x="156" y="-482"/>
      <point x="153" y="-368"/>
      <point x="146" y="-282" type="curve" smooth="yes"/>
      <point x="141" y="-222"/>
      <point x="132" y="-149"/>
      <point x="123" y="-87" type="curve"/>
      <point x="135" y="-77"/>
      <point x="163" y="-57"/>
      <point x="221" y="-57" type="curve" smooth="yes"/>
      <point x="257" y="-57"/>
      <point x="275" y="-66"/>
      <point x="315" y="-81" type="curve"/>
      <point x="339" y="-50"/>
      <point x="353" y="-28"/>
      <point x="366" y="16" type="curve"/>
      <point x="345" y="47"/>
      <point x="288" y="77"/>
      <point x="247" y="86" type="curve"/>
      <point x="258" y="95"/>
      <point x="281" y="117"/>
      <point x="322" y="117" type="curve"/>
      <point x="365" y="117"/>
      <point x="391" y="86"/>
      <point x="414" y="57" type="curve" smooth="yes"/>
      <point x="435" y="30"/>
      <point x="461" y="0"/>
      <point x="516" y="0" type="curve" smooth="yes"/>
      <point x="574" y="0"/>
      <point x="601" y="41"/>
      <point x="607" y="53" type="curve"/>
      <point x="615" y="38"/>
      <point x="644" y="10"/>
      <point x="692" y="10" type="curve" smooth="yes"/>
      <point x="736" y="10"/>
      <point x="772" y="34"/>
      <point x="795" y="77" type="curve" smooth="yes"/>
      <point x="815" y="115"/>
      <point x="819" y="154"/>
      <point x="819" y="176" type="curve" smooth="yes"/>
      <point x="819" y="218"/>
      <point x="804" y="267"/>
      <point x="761" y="312" type="curve"/>
    </contour>
    <contour>
      <point x="430" y="0" type="move" name="caret_1"/>
    </contour>
    <contour>
      <point x="607" y="-31" type="move" name="bottom_1"/>
    </contour>
    <contour>
      <point x="607" y="298" type="move" name="top_1"/>
    </contour>
    <contour>
      <point x="161" y="224" type="move" name="top_2"/>
    </contour>
    <contour>
      <point x="123" y="-526" type="move" name="bottom_2"/>
    </contour>
  </outline>
</glyph>
<glyph name="lam_meem-ar" format="1">
  <advance width="458"/>
  <unicode hex="FC42"/>
  <outline>
    <contour>
      <point x="371" y="167"/>
      <point x="331" y="188"/>
      <point x="294" y="198" type="curve"/>
      <point x="306" y="206"/>
      <point x="317" y="224"/>
      <point x="306" y="277" type="curve" smooth="yes"/>
      <point x="302" y="296"/>
      <point x="297" y="320"/>
      <point x="291" y="350" type="curve" smooth="yes"/>
      <point x="287" y="370"/>
      <point x="281" y="390"/>
      <point x="276" y="421" type="curve"/>
      <point x="268" y="458"/>
      <point x="282" y="475"/>
      <point x="314" y="500" type="curve" smooth="yes"/>
      <point x="274" y="541"/>
      <point x="251" y="572"/>
      <point x="226" y="630" type="curve"/>
      <point x="154" y="514" type="line"/>
      <point x="180" y="449"/>
      <point x="197" y="394"/>
      <point x="211" y="336" type="curve" smooth="yes"/>
      <point x="217" y="311"/>
      <point x="232" y="247"/>
      <point x="238" y="211" type="curve"/>
      <point x="231" y="202"/>
      <point x="219" y="202"/>
      <point x="200" y="201" type="curve"/>
      <point x="180" y="183"/>
      <point x="172" y="170"/>
      <point x="164" y="140" type="curve"/>
      <point x="128" y="122"/>
      <point x="101" y="95"/>
      <point x="82" y="60" type="curve" smooth="yes"/>
      <point x="66" y="28"/>
      <point x="55" y="-13"/>
      <point x="62" y="-56" type="curve" smooth="yes"/>
      <point x="91" y="-254"/>
      <point x="103" y="-326"/>
      <point x="110" y="-410" type="curve"/>
      <point x="171" y="-384" type="line"/>
      <point x="171" y="-384"/>
      <point x="167" y="-274"/>
      <point x="161" y="-204" type="curve" smooth="yes"/>
      <point x="156" y="-144"/>
      <point x="148" y="-51"/>
      <point x="138" y="11" type="curve"/>
      <point x="146" y="17"/>
      <point x="189" y="34"/>
      <point x="247" y="34" type="curve"/>
      <point x="287" y="34"/>
      <point x="315" y="27"/>
      <point x="352" y="17" type="curve"/>
      <point x="380" y="53"/>
      <point x="392" y="90"/>
      <point x="408" y="137" type="curve" smooth="yes"/>
    </contour>
    <contour>
      <point x="229" y="0" type="move" name="caret_1"/>
    </contour>
    <contour>
      <point x="308" y="-29" type="move" name="bottom_1"/>
    </contour>
    <contour>
      <point x="127" y="628" type="move" name="top_1"/>
    </contour>
    <contour>
      <point x="62" y="209" type="move" name="top_2"/>
    </contour>
    <contour>
      <point x="147" y="-425" type="move" name="bottom_2"/>
    </contour>
  </outline>
</glyph>
<glyph name="lam_alefMaksura-ar" format="1">
  <advance width="678"/>
  <unicode hex="FC43"/>
  <outline>
    <contour>
      <point x="552" y="523"/>
      <point x="528" y="553"/>
      <point x="507" y="608" type="curve"/>
      <point x="432" y="493" type="line"/>
      <point x="432" y="493"/>
      <point x="450" y="438"/>
      <point x="463" y="387" type="curve" smooth="yes"/>
      <point x="475" y="338"/>
      <point x="497" y="232"/>
      <point x="507" y="142" type="curve"/>
      <point x="491" y="121"/>
      <point x="446" y="96"/>
      <point x="392" y="93" type="curve"/>
      <point x="386" y="67"/>
      <point x="383" y="41"/>
      <point x="379" y="-1" type="curve"/>
      <point x="429" y="-5"/>
      <point x="461" y="-9"/>
      <point x="488" y="-16" type="curve" smooth="yes"/>
      <point x="522" y="-25"/>
      <point x="542" y="-37"/>
      <point x="543" y="-49" type="curve"/>
      <point x="540" y="-56"/>
      <point x="516" y="-76"/>
      <point x="471" y="-96" type="curve"/>
      <point x="441" y="-108"/>
      <point x="393" y="-130"/>
      <point x="299" y="-130" type="curve" smooth="yes"/>
      <point x="229" y="-130"/>
      <point x="184" y="-110"/>
      <point x="159" y="-80" type="curve" smooth="yes"/>
      <point x="133" y="-49"/>
      <point x="128" y="4"/>
      <point x="142" y="67" type="curve"/>
      <point x="99" y="82" type="line"/>
      <point x="75" y="23"/>
      <point x="64" y="-26"/>
      <point x="61" y="-65" type="curve" smooth="yes"/>
      <point x="58" y="-101"/>
      <point x="63" y="-134"/>
      <point x="75" y="-163" type="curve" smooth="yes"/>
      <point x="90" y="-200"/>
      <point x="116" y="-229"/>
      <point x="155" y="-250" type="curve" smooth="yes"/>
      <point x="192" y="-270"/>
      <point x="239" y="-281"/>
      <point x="291" y="-281" type="curve" smooth="yes"/>
      <point x="350" y="-281"/>
      <point x="406" y="-271"/>
      <point x="456" y="-252" type="curve" smooth="yes"/>
      <point x="521" y="-227"/>
      <point x="574" y="-185"/>
      <point x="606" y="-125" type="curve" smooth="yes"/>
      <point x="619" y="-101"/>
      <point x="628" y="-72"/>
      <point x="628" y="-46" type="curve" smooth="yes"/>
      <point x="628" y="3"/>
      <point x="596" y="40"/>
      <point x="550" y="59" type="curve"/>
      <point x="571" y="88"/>
      <point x="586" y="129"/>
      <point x="586" y="171" type="curve" smooth="yes"/>
      <point x="586" y="205"/>
      <point x="576" y="265"/>
      <point x="568" y="324" type="curve" smooth="yes"/>
      <point x="564" y="349"/>
      <point x="567" y="331"/>
      <point x="557" y="398" type="curve" smooth="yes"/>
      <point x="549" y="454"/>
      <point x="578" y="471"/>
      <point x="595" y="479" type="curve"/>
    </contour>
    <contour>
      <point x="344" y="0" type="move" name="caret_1"/>
    </contour>
    <contour>
      <point x="542" y="-274" type="move" name="bottom_1"/>
    </contour>
    <contour>
      <point x="444" y="628" type="move" name="top_1"/>
    </contour>
    <contour>
      <point x="266" y="82" type="move" name="top_2"/>
    </contour>
    <contour>
      <point x="301" y="-311" type="move" name="bottom_2"/>
    </contour>
  </outline>
</glyph>
<glyph name="tah_alefMaksura-ar" format="1">
  <advance width="1011"/>
  <unicode hex="FCF5"/>
  <outline>
    <contour>
      <point x="892" y="385"/>
      <point x="860" y="397"/>
      <point x="830" y="397" type="curve" smooth="yes"/>
      <point x="795" y="397"/>
      <point x="763" y="380"/>
      <point x="727" y="354" type="curve" smooth="yes"/>
      <point x="707" y="340"/>
      <point x="687" y="321"/>
      <point x="664" y="301" type="curve"/>
      <point x="674" y="356"/>
      <point x="668" y="403"/>
      <point x="662" y="439" type="curve"/>
      <point x="655" y="503"/>
      <point x="699" y="521"/>
      <point x="699" y="521" type="curve"/>
      <point x="646" y="568"/>
      <point x="612" y="651"/>
      <point x="612" y="651" type="curve"/>
      <point x="536" y="535" type="line"/>
      <point x="545" y="515"/>
      <point x="557" y="487"/>
      <point x="566" y="455" type="curve" smooth="yes"/>
      <point x="588" y="378"/>
      <point x="596" y="272"/>
      <point x="598" y="226" type="curve"/>
      <point x="576" y="192"/>
      <point x="559" y="158"/>
      <point x="550" y="138" type="curve"/>
      <point x="490" y="118"/>
      <point x="463" y="100"/>
      <point x="454" y="92" type="curve" smooth="yes"/>
      <point x="423" y="65"/>
      <point x="418" y="1"/>
      <point x="418" y="1" type="curve" smooth="yes"/>
      <point x="418" y="1"/>
      <point x="450" y="-5"/>
      <point x="477" y="-12" type="curve" smooth="yes"/>
      <point x="509" y="-21"/>
      <point x="543" y="-34"/>
      <point x="543" y="-50" type="curve"/>
      <point x="539" y="-77"/>
      <point x="486" y="-101"/>
      <point x="422" y="-115" type="curve" smooth="yes"/>
      <point x="381" y="-124"/>
      <point x="337" y="-129"/>
      <point x="298" y="-129" type="curve" smooth="yes"/>
      <point x="238" y="-129"/>
      <point x="189" y="-116"/>
      <point x="159" y="-81" type="curve" smooth="yes"/>
      <point x="130" y="-47"/>
      <point x="131" y="3"/>
      <point x="142" y="66" type="curve"/>
      <point x="99" y="81" type="line"/>
      <point x="79" y="30"/>
      <point x="64" y="-33"/>
      <point x="61" y="-66" type="curve" smooth="yes"/>
      <point x="58" y="-98"/>
      <point x="63" y="-136"/>
      <point x="75" y="-165" type="curve" smooth="yes"/>
      <point x="90" y="-201"/>
      <point x="118" y="-231"/>
      <point x="155" y="-251" type="curve" smooth="yes"/>
      <point x="192" y="-271"/>
      <point x="239" y="-282"/>
      <point x="291" y="-282" type="curve" smooth="yes"/>
      <point x="353" y="-282"/>
      <point x="431" y="-266"/>
      <point x="487" y="-237" type="curve" smooth="yes"/>
      <point x="537" y="-211"/>
      <point x="581" y="-172"/>
      <point x="606" y="-127" type="curve" smooth="yes"/>
      <point x="629" y="-85"/>
      <point x="637" y="-39"/>
      <point x="623" y="-6" type="curve" smooth="yes"/>
      <point x="614" y="15"/>
      <point x="600" y="32"/>
      <point x="575" y="44" type="curve"/>
      <point x="693" y="78"/>
      <point x="823" y="108"/>
      <point x="892" y="156" type="curve" smooth="yes"/>
      <point x="937" y="187"/>
      <point x="961" y="229"/>
      <point x="961" y="276" type="curve" smooth="yes"/>
      <point x="961" y="316"/>
      <point x="944" y="346"/>
      <point x="916" y="367" type="curve" smooth="yes"/>
    </contour>
    <contour>
      <point x="656" y="185"/>
      <point x="668" y="201"/>
      <point x="683" y="217" type="curve" smooth="yes"/>
      <point x="720" y="257"/>
      <point x="755" y="289"/>
      <point x="804" y="289" type="curve" smooth="yes"/>
      <point x="846" y="289"/>
      <point x="872" y="265"/>
      <point x="879" y="253" type="curve"/>
      <point x="865" y="240"/>
      <point x="841" y="231"/>
      <point x="773" y="210" type="curve" smooth="yes"/>
      <point x="769" y="209"/>
      <point x="704" y="189"/>
      <point x="646" y="172" type="curve"/>
    </contour>
    <contour>
      <point x="510" y="0" type="move" name="caret_1"/>
    </contour>
    <contour>
      <point x="765" y="-19" type="move" name="bottom_1"/>
    </contour>
    <contour>
      <point x="852" y="427" type="move" name="top_1"/>
    </contour>
    <contour>
      <point x="272" y="69" type="move" name="top_2"/>
    </contour>
    <contour>
      <point x="301" y="-312" type="move" name="bottom_2"/>
    </contour>
  </outline>
</glyph>
<glyph name="ain_alefMaksura-ar" format="1">
  <advance width="918"/>
  <unicode hex="FCF7"/>
  <outline>
    <contour>
      <point x="651" y="431"/>
      <point x="608" y="409"/>
      <point x="576" y="379" type="curve" smooth="yes"/>
      <point x="544" y="349"/>
      <point x="519" y="307"/>
      <point x="519" y="261" type="curve" smooth="yes"/>
      <point x="519" y="230"/>
      <point x="530" y="190"/>
      <point x="560" y="164" type="curve"/>
      <point x="503" y="139"/>
      <point x="469" y="119"/>
      <point x="452" y="93" type="curve" smooth="yes"/>
      <point x="438" y="71"/>
      <point x="428" y="62"/>
      <point x="417" y="2" type="curve"/>
      <point x="482" y="-10"/>
      <point x="542" y="-26"/>
      <point x="542" y="-47" type="curve" smooth="yes"/>
      <point x="542" y="-73"/>
      <point x="488" y="-97"/>
      <point x="425" y="-112" type="curve" smooth="yes"/>
      <point x="382" y="-123"/>
      <point x="334" y="-129"/>
      <point x="296" y="-129" type="curve" smooth="yes"/>
      <point x="235" y="-129"/>
      <point x="186" y="-112"/>
      <point x="159" y="-79" type="curve" smooth="yes"/>
      <point x="131" y="-45"/>
      <point x="127" y="10"/>
      <point x="141" y="67" type="curve"/>
      <point x="98" y="82" type="line"/>
      <point x="78" y="38"/>
      <point x="65" y="-16"/>
      <point x="61" y="-65" type="curve" smooth="yes"/>
      <point x="58" y="-102"/>
      <point x="62" y="-134"/>
      <point x="74" y="-163" type="curve" smooth="yes"/>
      <point x="89" y="-200"/>
      <point x="115" y="-229"/>
      <point x="154" y="-250" type="curve" smooth="yes"/>
      <point x="191" y="-270"/>
      <point x="238" y="-281"/>
      <point x="290" y="-281" type="curve" smooth="yes"/>
      <point x="358" y="-281"/>
      <point x="423" y="-267"/>
      <point x="478" y="-241" type="curve" smooth="yes"/>
      <point x="533" y="-215"/>
      <point x="577" y="-176"/>
      <point x="605" y="-126" type="curve" smooth="yes"/>
      <point x="621" y="-98"/>
      <point x="628" y="-68"/>
      <point x="627" y="-41" type="curve" smooth="yes"/>
      <point x="624" y="9"/>
      <point x="597" y="39"/>
      <point x="549" y="58" type="curve"/>
      <point x="606" y="90"/>
      <point x="703" y="131"/>
      <point x="828" y="164" type="curve"/>
      <point x="847" y="199"/>
      <point x="858" y="235"/>
      <point x="868" y="270" type="curve"/>
      <point x="804" y="257"/>
      <point x="712" y="234"/>
      <point x="678" y="223" type="curve"/>
      <point x="652" y="235"/>
      <point x="616" y="263"/>
      <point x="606" y="301" type="curve"/>
      <point x="620" y="309"/>
      <point x="652" y="328"/>
      <point x="700" y="328" type="curve" smooth="yes"/>
      <point x="726" y="328"/>
      <point x="749" y="323"/>
      <point x="778" y="313" type="curve"/>
      <point x="824" y="352" type="line"/>
      <point x="783" y="412"/>
      <point x="744" y="431"/>
      <point x="691" y="431" type="curve" smooth="yes"/>
    </contour>
    <contour>
      <point x="464" y="0" type="move" name="caret_1"/>
    </contour>
    <contour>
      <point x="635" y="-200" type="move" name="bottom_1"/>
    </contour>
    <contour>
      <point x="691" y="461" type="move" name="top_1"/>
    </contour>
    <contour>
      <point x="265" y="63" type="move" name="top_2"/>
    </contour>
    <contour>
      <point x="300" y="-311" type="move" name="bottom_2"/>
    </contour>
  </outline>
</glyph>
<glyph name="reh-ar.fina" format="1">
  <advance width="426"/>
  <unicode hex="FEAE"/>
  <outline>
    <contour>
      <point x="185" y="180"/>
      <point x="161" y="145"/>
      <point x="138" y="104" type="curve"/>
      <point x="138" y="104"/>
      <point x="218" y="47"/>
      <point x="218" y="-26" type="curve" smooth="yes"/>
      <point x="218" y="-82"/>
      <point x="170" y="-116"/>
      <point x="90" y="-161" type="curve" smooth="yes"/>
      <point x="25" y="-198"/>
      <point x="-60" y="-243"/>
      <point x="-60" y="-243" type="curve"/>
      <point x="-30" y="-286" type="line"/>
      <point x="-12" y="-279"/>
      <point x="27" y="-275"/>
      <point x="50" y="-275" type="curve" smooth="yes"/>
      <point x="69" y="-275"/>
      <point x="81" y="-278"/>
      <point x="101" y="-278" type="curve" smooth="yes"/>
      <point x="136" y="-278"/>
      <point x="167" y="-269"/>
      <point x="192" y="-252" type="curve" smooth="yes"/>
      <point x="219" y="-234"/>
      <point x="237" y="-206"/>
      <point x="248" y="-187" type="curve" smooth="yes"/>
      <point x="287" y="-120"/>
      <point x="297" y="-63"/>
      <point x="296" y="6" type="curve"/>
      <point x="309" y="2"/>
      <point x="324" y="0"/>
      <point x="340" y="0" type="curve" smooth="yes"/>
      <point x="426" y="0" type="line"/>
      <point x="426" y="139" type="line"/>
      <point x="327" y="139" type="line" smooth="yes"/>
      <point x="304" y="139"/>
      <point x="282" y="147"/>
      <point x="260" y="162" type="curve"/>
      <point x="228" y="185"/>
      <point x="215" y="212"/>
      <point x="215" y="212" type="curve"/>
    </contour>
    <contour>
      <point x="175" y="242" type="move" name="top"/>
    </contour>
    <contour>
      <point x="71" y="-308" type="move" name="bottom"/>
    </contour>
  </outline>
</glyph>
<glyph name="lam-ar.init" format="1">
  <advance width="248"/>
  <unicode hex="FEDF"/>
  <outline>
    <contour>
      <point x="155" y="523"/>
      <point x="131" y="553"/>
      <point x="110" y="608" type="curve"/>
      <point x="35" y="493" type="line"/>
      <point x="35" y="493"/>
      <point x="49" y="453"/>
      <point x="66" y="387" type="curve" smooth="yes"/>
      <point x="80" y="329"/>
      <point x="97" y="265"/>
      <point x="107" y="176" type="curve"/>
      <point x="100" y="167"/>
      <point x="76" y="139"/>
      <point x="28" y="139" type="curve" smooth="yes"/>
      <point x="-10" y="139" type="line" smooth="yes"/>
      <point x="-56" y="139"/>
      <point x="-80" y="98"/>
      <point x="-80" y="70" type="curve" smooth="yes"/>
      <point x="-80" y="31"/>
      <point x="-48" y="0"/>
      <point x="-10" y="0" type="curve"/>
      <point x="32" y="0" type="line"/>
      <point x="54" y="0"/>
      <point x="74" y="4"/>
      <point x="93" y="11" type="curve" smooth="yes"/>
      <point x="112" y="19"/>
      <point x="130" y="32"/>
      <point x="144" y="48" type="curve" smooth="yes"/>
      <point x="171" y="78"/>
      <point x="189" y="122"/>
      <point x="189" y="176" type="curve" smooth="yes"/>
      <point x="189" y="204"/>
      <point x="179" y="265"/>
      <point x="171" y="324" type="curve" smooth="yes"/>
      <point x="168" y="346"/>
      <point x="164" y="370"/>
      <point x="160" y="398" type="curve" smooth="yes"/>
      <point x="150" y="457"/>
      <point x="189" y="472"/>
      <point x="198" y="479" type="curve"/>
    </contour>
    <contour>
      <point x="21" y="598" type="move" name="top"/>
    </contour>
    <contour>
      <point x="74" y="-29" type="move" name="bottom"/>
    </contour>
  </outline>
</glyph>
<glyph name="TahSmallDotbelow-ar" format="1">
  <advance width="0"/>
  <outline>
    <contour>
      <point x="-36" y="776"/>
      <point x="-73" y="738"/>
      <point x="-91" y="723" type="curve"/>
      <point x="-62" y="702"/>
      <point x="-38" y="676"/>
      <point x="-21" y="655" type="curve"/>
      <point x="1" y="672"/>
      <point x="34" y="708"/>
      <point x="43" y="719" type="curve"/>
      <point x="31" y="743"/>
      <point x="4" y="772"/>
      <point x="-26" y="788" type="curve"/>
    </contour>
    <contour>
      <point x="-84" y="981" type="line"/>
      <point x="-73" y="962"/>
      <point x="-63" y="917"/>
      <point x="-63" y="884" type="curve"/>
      <point x="-68" y="874" type="line"/>
      <point x="-100" y="874" type="line"/>
      <point x="-87" y="822" type="line"/>
      <point x="-41" y="822" type="line"/>
      <point x="-20" y="822"/>
      <point x="4" y="831"/>
      <point x="22" y="844" type="curve" smooth="yes"/>
      <point x="43" y="860"/>
      <point x="53" y="880"/>
      <point x="53" y="900" type="curve" smooth="yes"/>
      <point x="53" y="922"/>
      <point x="27" y="939"/>
      <point x="9" y="939" type="curve" smooth="yes"/>
      <point x="-6" y="939"/>
      <point x="-25" y="927"/>
      <point x="-40" y="905" type="curve"/>
      <point x="-37" y="920"/>
      <point x="-37" y="938"/>
      <point x="-39" y="951" type="curve"/>
      <point x="-41" y="966"/>
      <point x="-38" y="970"/>
      <point x="-25" y="974" type="curve"/>
      <point x="-37" y="988"/>
      <point x="-46" y="1001"/>
      <point x="-53" y="1018" type="curve"/>
    </contour>
    <contour>
      <point x="19" y="880"/>
      <point x="1" y="870"/>
      <point x="-16" y="870" type="curve" smooth="yes"/>
      <point x="-42" y="870" type="line"/>
      <point x="-34" y="883"/>
      <point x="-19" y="900"/>
      <point x="-3" y="900" type="curve" smooth="yes"/>
      <point x="12" y="900"/>
      <point x="20" y="893"/>
      <point x="24" y="887" type="curve"/>
    </contour>
    <contour>
      <point x="-51" y="1008" type="move" name="top"/>
    </contour>
    <contour>
      <point x="-26" y="633" type="move" name="_top"/>
    </contour>
  </outline>
</glyph>
<glyph name="behVbelow-ar.init" format="1">
  <advance width="244"/>
  <outline>
    <component base="dotlessbeh-ar.init"/>
    <component base="vbelow-ar" xOffset="19" yOffset="151"/>
    <contour>
      <point x="20" y="-266" type="move" name="bottom"/>
    </contour>
  </outline>
</glyph>
<glyph name="dotcenter-ar" format="1">
  <advance width="0"/>
  <outline>
    <contour>
      <point x="-14" y="226"/>
      <point x="-51" y="188"/>
      <point x="-69" y="173" type="curve"/>
      <point x="-40" y="152"/>
      <point x="-16" y="126"/>
      <point x="1" y="105" type="curve"/>
      <point x="23" y="122"/>
      <point x="56" y="158"/>
      <point x="65" y="169" type="curve"/>
      <point x="53" y="193"/>
      <point x="26" y="222"/>
      <point x="-4" y="238" type="curve"/>
    </contour>
    <contour>
      <point x="-2" y="172" type="move" name="_center"/>
    </contour>
  </outline>
</glyph>
<glyph name="four-ar.below" format="1">
  <advance width="0"/>
  <outline>
    <contour>
      <point x="102" y="-229"/>
      <point x="104" y="-213"/>
      <point x="106" y="-197" type="curve"/>
      <point x="76" y="-196"/>
      <point x="61" y="-208"/>
      <point x="46" y="-231" type="curve"/>
      <point x="40" y="-221"/>
      <point x="27" y="-196"/>
      <point x="-8" y="-196" type="curve" smooth="yes"/>
      <point x="-52" y="-196"/>
      <point x="-72" y="-255"/>
      <point x="-75" y="-273" type="curve" smooth="yes"/>
      <point x="-81" y="-313"/>
      <point x="-55" y="-352"/>
      <point x="-46" y="-365" type="curve" smooth="yes"/>
      <point x="-27" y="-396"/>
      <point x="-22" y="-418"/>
      <point x="-25" y="-454" type="curve"/>
      <point x="-2" y="-454" type="line"/>
      <point x="8" y="-418"/>
      <point x="6" y="-391"/>
      <point x="-12" y="-350" type="curve" smooth="yes"/>
      <point x="-13" y="-347"/>
      <point x="-30" y="-311"/>
      <point x="-33" y="-282" type="curve" smooth="yes"/>
      <point x="-35" y="-265"/>
      <point x="-26" y="-242"/>
      <point x="-7" y="-242" type="curve" smooth="yes"/>
      <point x="7" y="-242"/>
      <point x="17" y="-251"/>
      <point x="22" y="-261" type="curve" smooth="yes"/>
      <point x="28" y="-274"/>
      <point x="28" y="-281"/>
      <point x="30" y="-297" type="curve"/>
      <point x="50" y="-287" type="line"/>
      <point x="50" y="-258"/>
      <point x="71" y="-244"/>
      <point x="99" y="-241" type="curve"/>
    </contour>
    <contour>
      <point x="2" y="-172" type="move" name="_bottom"/>
    </contour>
    <contour>
      <point x="-2" y="-454" type="move" name="bottom"/>
    </contour>
  </outline>
</glyph>
<glyph name="kaf_lam_alef-ar.fina" format="1">
  <advance width="897"/>
  <outline>
    <contour>
      <point x="841" y="139" type="line" smooth="yes"/>
      <point x="787" y="139"/>
      <point x="764" y="169"/>
      <point x="736" y="201" type="curve" smooth="yes"/>
      <point x="709" y="232"/>
      <point x="683" y="262"/>
      <point x="656" y="293" type="curve" smooth="yes"/>
      <point x="631" y="321"/>
      <point x="605" y="349"/>
      <point x="583" y="372" type="curve"/>
      <point x="640" y="407"/>
      <point x="711" y="442"/>
      <point x="782" y="470" type="curve"/>
      <point x="794" y="518"/>
      <point x="801" y="558"/>
      <point x="806" y="608" type="curve"/>
      <point x="690" y="553"/>
      <point x="534" y="471"/>
      <point x="460" y="401" type="curve"/>
      <point x="453" y="470"/>
      <point x="446" y="539"/>
      <point x="439" y="608" type="curve"/>
      <point x="397" y="578"/>
      <point x="380" y="559"/>
      <point x="347" y="516" type="curve"/>
      <point x="352" y="477"/>
      <point x="358" y="438"/>
      <point x="363" y="399" type="curve" smooth="yes"/>
      <point x="368" y="361"/>
      <point x="370" y="339"/>
      <point x="370" y="314" type="curve" smooth="yes"/>
      <point x="370" y="274"/>
      <point x="365" y="252"/>
      <point x="357" y="229" type="curve"/>
      <point x="348" y="261"/>
      <point x="334" y="294"/>
      <point x="318" y="323" type="curve" smooth="yes"/>
      <point x="299" y="358"/>
      <point x="272" y="393"/>
      <point x="241" y="426" type="curve" smooth="yes"/>
      <point x="176" y="496"/>
      <point x="95" y="558"/>
      <point x="63" y="558" type="curve" smooth="yes"/>
      <point x="44" y="558"/>
      <point x="31" y="545"/>
      <point x="29" y="525" type="curve" smooth="yes"/>
      <point x="28" y="513"/>
      <point x="25" y="494"/>
      <point x="20" y="446" type="curve"/>
      <point x="20" y="446"/>
      <point x="74" y="405"/>
      <point x="117" y="377" type="curve"/>
      <point x="131" y="401" type="line"/>
      <point x="147" y="388"/>
      <point x="176" y="362"/>
      <point x="209" y="323" type="curve" smooth="yes"/>
      <point x="273" y="247"/>
      <point x="294" y="191"/>
      <point x="302" y="147" type="curve"/>
      <point x="252" y="86"/>
      <point x="173" y="36"/>
      <point x="69" y="-14" type="curve"/>
      <point x="78" y="-64" type="line"/>
      <point x="129" y="-49"/>
      <point x="145" y="-46"/>
      <point x="173" y="-42" type="curve" smooth="yes"/>
      <point x="211" y="-37"/>
      <point x="248" y="-31"/>
      <point x="285" y="-10" type="curve" smooth="yes"/>
      <point x="340" y="21"/>
      <point x="376" y="72"/>
      <point x="395" y="111" type="curve"/>
      <point x="401" y="82"/>
      <point x="411" y="60"/>
      <point x="426" y="43" type="curve" smooth="yes"/>
      <point x="452" y="14"/>
      <point x="491" y="0"/>
      <point x="548" y="0" type="curve"/>
      <point x="611" y="0"/>
      <point x="676" y="11"/>
      <point x="700" y="75" type="curve"/>
      <point x="705" y="67"/>
      <point x="748" y="0"/>
      <point x="842" y="0" type="curve" smooth="yes"/>
      <point x="897" y="0" type="line"/>
      <point x="897" y="139" type="line"/>
    </contour>
    <contour>
      <point x="623" y="141"/>
      <point x="604" y="133"/>
      <point x="565" y="133" type="curve" smooth="yes"/>
      <point x="531" y="133"/>
      <point x="515" y="140"/>
      <point x="501" y="158" type="curve" smooth="yes"/>
      <point x="491" y="171"/>
      <point x="488" y="184"/>
      <point x="486" y="200" type="curve" smooth="yes"/>
      <point x="481" y="248"/>
      <point x="476" y="295"/>
      <point x="471" y="343" type="curve"/>
      <point x="498" y="314"/>
      <point x="549" y="269"/>
      <point x="565" y="250" type="curve" smooth="yes"/>
      <point x="593" y="219"/>
      <point x="619" y="195"/>
      <point x="639" y="162" type="curve"/>
    </contour>
    <contour>
      <point x="690" y="-29" type="move" name="bottom_1"/>
    </contour>
    <contour>
      <point x="337" y="601" type="move" name="top_2"/>
    </contour>
    <contour>
      <point x="598" y="0" type="move" name="caret_2"/>
    </contour>
    <contour>
      <point x="299" y="0" type="move" name="caret_1"/>
    </contour>
    <contour>
      <point x="173" y="-74" type="move" name="bottom_3"/>
    </contour>
    <contour>
      <point x="668" y="598" type="move" name="top_1"/>
    </contour>
    <contour>
      <point x="430" y="-29" type="move" name="bottom_2"/>
    </contour>
    <contour>
      <point x="53" y="571" type="move" name="top_3"/>
    </contour>
  </outline>
</glyph>
<glyph name="kaf_lam_alef-ar" format="1">
  <advance width="765"/>
  <outline>
    <contour>
      <point x="676" y="211"/>
      <point x="655" y="261"/>
      <point x="621" y="304" type="curve" smooth="yes"/>
      <point x="599" y="332"/>
      <point x="570" y="358"/>
      <point x="538" y="382" type="curve"/>
      <point x="589" y="411"/>
      <point x="660" y="445"/>
      <point x="721" y="470" type="curve"/>
      <point x="734" y="521"/>
      <point x="739" y="558"/>
      <point x="745" y="608" type="curve"/>
      <point x="631" y="556"/>
      <point x="487" y="483"/>
      <point x="409" y="412" type="curve"/>
      <point x="402" y="477"/>
      <point x="396" y="543"/>
      <point x="389" y="608" type="curve"/>
      <point x="347" y="578"/>
      <point x="330" y="559"/>
      <point x="297" y="516" type="curve"/>
      <point x="302" y="477"/>
      <point x="308" y="438"/>
      <point x="313" y="399" type="curve" smooth="yes"/>
      <point x="318" y="361"/>
      <point x="320" y="339"/>
      <point x="320" y="314" type="curve" smooth="yes"/>
      <point x="320" y="274"/>
      <point x="315" y="252"/>
      <point x="307" y="229" type="curve"/>
      <point x="298" y="261"/>
      <point x="284" y="294"/>
      <point x="268" y="323" type="curve" smooth="yes"/>
      <point x="249" y="358"/>
      <point x="222" y="393"/>
      <point x="191" y="426" type="curve" smooth="yes"/>
      <point x="126" y="496"/>
      <point x="45" y="558"/>
      <point x="13" y="558" type="curve" smooth="yes"/>
      <point x="-6" y="558"/>
      <point x="-19" y="545"/>
      <point x="-21" y="525" type="curve" smooth="yes"/>
      <point x="-22" y="513"/>
      <point x="-25" y="494"/>
      <point x="-30" y="446" type="curve"/>
      <point x="-30" y="446"/>
      <point x="24" y="405"/>
      <point x="67" y="377" type="curve"/>
      <point x="81" y="401" type="line"/>
      <point x="97" y="388"/>
      <point x="126" y="362"/>
      <point x="159" y="323" type="curve" smooth="yes"/>
      <point x="223" y="247"/>
      <point x="244" y="191"/>
      <point x="252" y="147" type="curve"/>
      <point x="202" y="86"/>
      <point x="123" y="36"/>
      <point x="19" y="-14" type="curve"/>
      <point x="28" y="-64" type="line"/>
      <point x="79" y="-49"/>
      <point x="95" y="-46"/>
      <point x="123" y="-42" type="curve" smooth="yes"/>
      <point x="161" y="-37"/>
      <point x="198" y="-31"/>
      <point x="235" y="-10" type="curve" smooth="yes"/>
      <point x="290" y="21"/>
      <point x="326" y="72"/>
      <point x="345" y="111" type="curve"/>
      <point x="354" y="77"/>
      <point x="367" y="50"/>
      <point x="389" y="31" type="curve" smooth="yes"/>
      <point x="414" y="11"/>
      <point x="449" y="0"/>
      <point x="502" y="0" type="curve" smooth="yes"/>
      <point x="564" y="0"/>
      <point x="607" y="15"/>
      <point x="636" y="44" type="curve" smooth="yes"/>
      <point x="661" y="69"/>
      <point x="676" y="104"/>
      <point x="676" y="149" type="curve" smooth="yes"/>
    </contour>
    <contour>
      <point x="577" y="142"/>
      <point x="558" y="132"/>
      <point x="509" y="132" type="curve" smooth="yes"/>
      <point x="475" y="132"/>
      <point x="459" y="140"/>
      <point x="445" y="158" type="curve" smooth="yes"/>
      <point x="435" y="171"/>
      <point x="432" y="184"/>
      <point x="430" y="200" type="curve" smooth="yes"/>
      <point x="428" y="217"/>
      <point x="420" y="295"/>
      <point x="418" y="321" type="curve"/>
      <point x="449" y="309"/>
      <point x="487" y="287"/>
      <point x="515" y="267" type="curve" smooth="yes"/>
      <point x="572" y="227"/>
      <point x="595" y="181"/>
      <point x="595" y="166" type="curve"/>
    </contour>
    <contour>
      <point x="596" y="-29" type="move" name="bottom_1"/>
    </contour>
    <contour>
      <point x="286" y="599" type="move" name="top_2"/>
    </contour>
    <contour>
      <point x="490" y="0" type="move" name="caret_2"/>
    </contour>
    <contour>
      <point x="245" y="0" type="move" name="caret_1"/>
    </contour>
    <contour>
      <point x="123" y="-72" type="move" name="bottom_3"/>
    </contour>
    <contour>
      <point x="607" y="599" type="move" name="top_1"/>
    </contour>
    <contour>
      <point x="349" y="-29" type="move" name="bottom_2"/>
    </contour>
    <contour>
      <point x="13" y="588" type="move" name="top_3"/>
    </contour>
  </outline>
</glyph>
<glyph name="keheh_alef-ar.fina" format="1">
  <advance width="572"/>
  <outline>
    <contour>
      <point x="55" y="415"/>
      <point x="62" y="278"/>
      <point x="62" y="167" type="curve" smooth="yes"/>
      <point x="62" y="110"/>
      <point x="76" y="68"/>
      <point x="104" y="40" type="curve" smooth="yes"/>
      <point x="131" y="13"/>
      <point x="173" y="0"/>
      <point x="229" y="0" type="curve" smooth="yes"/>
      <point x="303" y="0"/>
      <point x="357" y="28"/>
      <point x="375" y="75" type="curve"/>
      <point x="380" y="67"/>
      <point x="423" y="0"/>
      <point x="517" y="0" type="curve" smooth="yes"/>
      <point x="572" y="0" type="line"/>
      <point x="572" y="139" type="line"/>
      <point x="516" y="139" type="line" smooth="yes"/>
      <point x="462" y="139"/>
      <point x="439" y="169"/>
      <point x="411" y="201" type="curve" smooth="yes"/>
      <point x="384" y="232"/>
      <point x="358" y="262"/>
      <point x="331" y="293" type="curve" smooth="yes"/>
      <point x="306" y="321"/>
      <point x="280" y="349"/>
      <point x="258" y="372" type="curve"/>
      <point x="315" y="407"/>
      <point x="386" y="442"/>
      <point x="457" y="470" type="curve"/>
      <point x="469" y="518"/>
      <point x="476" y="558"/>
      <point x="481" y="608" type="curve"/>
      <point x="373" y="557"/>
      <point x="231" y="483"/>
      <point x="152" y="417" type="curve"/>
      <point x="147" y="609" type="line"/>
      <point x="107" y="609" type="line"/>
      <point x="80" y="575"/>
      <point x="62" y="549"/>
      <point x="40" y="512" type="curve"/>
    </contour>
    <contour>
      <point x="182" y="303"/>
      <point x="222" y="267"/>
      <point x="237" y="250" type="curve" smooth="yes"/>
      <point x="265" y="219"/>
      <point x="291" y="195"/>
      <point x="311" y="162" type="curve"/>
      <point x="295" y="141"/>
      <point x="276" y="133"/>
      <point x="237" y="133" type="curve" smooth="yes"/>
      <point x="220" y="133"/>
      <point x="206" y="135"/>
      <point x="194" y="139" type="curve"/>
      <point x="170" y="152"/>
      <point x="161" y="167"/>
      <point x="158" y="200" type="curve"/>
      <point x="154" y="331" type="line"/>
    </contour>
    <contour>
      <point x="345" y="589" type="move" name="top_1"/>
    </contour>
    <contour>
      <point x="381" y="0" type="move" name="bottom_1"/>
    </contour>
    <contour>
      <point x="286" y="0" type="move" name="caret_1"/>
    </contour>
    <contour>
      <point x="15" y="589" type="move" name="top_2"/>
    </contour>
    <contour>
      <point x="114" y="0" type="move" name="bottom_2"/>
    </contour>
  </outline>
</glyph>
<glyph name="three-ar.above" format="1">
  <advance width="0"/>
  <outline>
    <contour>
      <point x="79" y="853" type="line"/>
      <point x="79" y="833"/>
      <point x="74" y="818"/>
      <point x="58" y="818" type="curve" smooth="yes"/>
      <point x="38" y="818"/>
      <point x="34" y="835"/>
      <point x="36" y="861" type="curve"/>
      <point x="13" y="853" type="line"/>
      <point x="15" y="833"/>
      <point x="9" y="821"/>
      <point x="-7" y="821" type="curve" smooth="yes"/>
      <point x="-34" y="821"/>
      <point x="-51" y="858"/>
      <point x="-56" y="866" type="curve"/>
      <point x="-71" y="847"/>
      <point x="-78" y="836"/>
      <point x="-88" y="816" type="curve"/>
      <point x="-73" y="791"/>
      <point x="-63" y="765"/>
      <point x="-56" y="736" type="curve" smooth="yes"/>
      <point x="-45" y="694"/>
      <point x="-41" y="654"/>
      <point x="-44" y="608" type="curve"/>
      <point x="-19" y="608" type="line"/>
      <point x="-12" y="641"/>
      <point x="-7" y="669"/>
      <point x="-6" y="696" type="curve" smooth="yes"/>
      <point x="-5" y="719"/>
      <point x="-7" y="739"/>
      <point x="-11" y="762" type="curve"/>
      <point x="-2" y="763"/>
      <point x="12" y="766"/>
      <point x="23" y="777" type="curve"/>
      <point x="31" y="771"/>
      <point x="41" y="769"/>
      <point x="51" y="769" type="curve" smooth="yes"/>
      <point x="66" y="770"/>
      <point x="79" y="775"/>
      <point x="87" y="786" type="curve" smooth="yes"/>
      <point x="101" y="803"/>
      <point x="104" y="830"/>
      <point x="100" y="861" type="curve"/>
    </contour>
    <contour>
      <point x="2" y="864" type="move" name="top"/>
    </contour>
    <contour>
      <point x="2" y="660" type="move" name="_top"/>
    </contour>
  </outline>
</glyph>
<glyph name="threedotsdowncenter-ar" format="1">
  <advance width="0"/>
  <outline>
    <contour>
      <point x="112" y="399"/>
      <point x="85" y="428"/>
      <point x="54" y="443" type="curve"/>
      <point x="47" y="434"/>
      <point x="23" y="408"/>
      <point x="4" y="390" type="curve"/>
      <point x="-10" y="411"/>
      <point x="-32" y="431"/>
      <point x="-56" y="443" type="curve"/>
      <point x="-65" y="431"/>
      <point x="-102" y="393"/>
      <point x="-120" y="378" type="curve"/>
      <point x="-91" y="358"/>
      <point x="-67" y="331"/>
      <point x="-50" y="310" type="curve"/>
      <point x="-33" y="324"/>
      <point x="-7" y="350"/>
      <point x="7" y="366" type="curve"/>
      <point x="28" y="347"/>
      <point x="46" y="327"/>
      <point x="60" y="310" type="curve"/>
      <point x="82" y="327"/>
      <point x="115" y="363"/>
      <point x="123" y="374" type="curve"/>
    </contour>
    <contour>
      <point x="61" y="269"/>
      <point x="33" y="298"/>
      <point x="3" y="314" type="curve"/>
      <point x="-6" y="302"/>
      <point x="-43" y="264"/>
      <point x="-62" y="249" type="curve"/>
      <point x="-33" y="228"/>
      <point x="-8" y="202"/>
      <point x="8" y="181" type="curve"/>
      <point x="31" y="197"/>
      <point x="64" y="233"/>
      <point x="72" y="245" type="curve"/>
    </contour>
    <contour>
      <point x="2" y="344" type="move" name="_center"/>
    </contour>
  </outline>
</glyph>
<glyph name="two-ar.above" format="1">
  <advance width="0"/>
  <outline>
    <contour>
      <point x="67" y="853" type="line"/>
      <point x="65" y="838"/>
      <point x="58" y="818"/>
      <point x="18" y="818" type="curve" smooth="yes"/>
      <point x="2" y="818"/>
      <point x="-10" y="825"/>
      <point x="-18" y="836" type="curve" smooth="yes"/>
      <point x="-26" y="845"/>
      <point x="-31" y="855"/>
      <point x="-38" y="866" type="curve"/>
      <point x="-53" y="847"/>
      <point x="-60" y="836"/>
      <point x="-70" y="816" type="curve"/>
      <point x="-55" y="791"/>
      <point x="-45" y="765"/>
      <point x="-38" y="736" type="curve" smooth="yes"/>
      <point x="-27" y="694"/>
      <point x="-23" y="654"/>
      <point x="-26" y="608" type="curve"/>
      <point x="-1" y="608" type="line"/>
      <point x="6" y="639"/>
      <point x="10" y="665"/>
      <point x="12" y="691" type="curve" smooth="yes"/>
      <point x="13" y="710"/>
      <point x="12" y="739"/>
      <point x="7" y="759" type="curve"/>
      <point x="30" y="759"/>
      <point x="49" y="764"/>
      <point x="66" y="782" type="curve" smooth="yes"/>
      <point x="82" y="801"/>
      <point x="90" y="828"/>
      <point x="90" y="861" type="curve"/>
    </contour>
    <contour>
      <point x="33" y="866" type="move" name="top"/>
    </contour>
    <contour>
      <point x="30" y="665" type="move" name="_top"/>
    </contour>
  </outline>
</glyph>
<glyph name="uHamzaabove-ar.fina" format="1">
  <advance width="457"/>
  <outline>
    <contour>
      <point x="129" y="449"/>
      <point x="116" y="446"/>
      <point x="104" y="445" type="curve" smooth="yes"/>
      <point x="89" y="443"/>
      <point x="83" y="442"/>
      <point x="70" y="446" type="curve" smooth="yes"/>
      <point x="51" y="451"/>
      <point x="45" y="460"/>
      <point x="44" y="464" type="curve"/>
      <point x="50" y="467"/>
      <point x="63" y="474"/>
      <point x="80" y="474" type="curve" smooth="yes"/>
      <point x="89" y="474"/>
      <point x="97" y="471"/>
      <point x="106" y="468" type="curve"/>
      <point x="118" y="480" type="line"/>
      <point x="116" y="496"/>
      <point x="105" y="513"/>
      <point x="77" y="513" type="curve" smooth="yes"/>
      <point x="60" y="513"/>
      <point x="44" y="507"/>
      <point x="27" y="494" type="curve" smooth="yes"/>
      <point x="16" y="485"/>
      <point x="6" y="473"/>
      <point x="3" y="469" type="curve" smooth="yes"/>
      <point x="0" y="464"/>
      <point x="-2" y="460"/>
      <point x="-2" y="454" type="curve" smooth="yes"/>
      <point x="-2" y="443"/>
      <point x="5" y="429"/>
      <point x="25" y="421" type="curve"/>
      <point x="13" y="413"/>
      <point x="-4" y="402"/>
      <point x="-11" y="391" type="curve" smooth="yes"/>
      <point x="-15" y="386"/>
      <point x="-15" y="381"/>
      <point x="-14" y="377" type="curve" smooth="yes"/>
      <point x="-11" y="370"/>
      <point x="-6" y="367"/>
      <point x="0" y="367" type="curve" smooth="yes"/>
      <point x="0" y="367"/>
      <point x="27" y="385"/>
      <point x="58" y="395" type="curve" smooth="yes"/>
      <point x="77" y="402"/>
      <point x="98" y="408"/>
      <point x="118" y="409" type="curve"/>
      <point x="128" y="424"/>
      <point x="135" y="434"/>
      <point x="141" y="451" type="curve"/>
    </contour>
    <contour>
      <point x="267" y="441" type="line"/>
      <point x="279" y="467"/>
      <point x="288" y="503"/>
      <point x="261" y="516" type="curve" smooth="yes"/>
      <point x="243" y="526"/>
      <point x="220" y="518"/>
      <point x="200" y="493" type="curve" smooth="yes"/>
      <point x="188" y="479"/>
      <point x="184" y="465"/>
      <point x="187" y="452" type="curve" smooth="yes"/>
      <point x="191" y="436"/>
      <point x="205" y="426"/>
      <point x="215" y="421" type="curve"/>
      <point x="198" y="407"/>
      <point x="174" y="402"/>
      <point x="145" y="406" type="curve"/>
      <point x="136" y="393"/>
      <point x="134" y="383"/>
      <point x="128" y="367" type="curve"/>
      <point x="189" y="364"/>
      <point x="211" y="375"/>
      <point x="225" y="386" type="curve" smooth="yes"/>
      <point x="237" y="393"/>
      <point x="245" y="402"/>
      <point x="250" y="408" type="curve"/>
      <point x="279" y="396" type="line"/>
      <point x="280" y="416"/>
      <point x="280" y="421"/>
      <point x="279" y="436" type="curve"/>
    </contour>
    <contour>
      <point x="230" y="456" type="line" smooth="yes"/>
      <point x="220" y="461"/>
      <point x="215" y="469"/>
      <point x="215" y="474" type="curve" smooth="yes"/>
      <point x="214" y="479"/>
      <point x="218" y="486"/>
      <point x="227" y="489" type="curve" smooth="yes"/>
      <point x="233" y="490"/>
      <point x="238" y="489"/>
      <point x="245" y="483" type="curve" smooth="yes"/>
      <point x="251" y="477"/>
      <point x="252" y="461"/>
      <point x="245" y="449" type="curve"/>
    </contour>
    <contour>
      <point x="332" y="139" type="line"/>
      <point x="327" y="178"/>
      <point x="318" y="219"/>
      <point x="302" y="251" type="curve" smooth="yes"/>
      <point x="284" y="288"/>
      <point x="257" y="314"/>
      <point x="216" y="314" type="curve" smooth="yes"/>
      <point x="170" y="314"/>
      <point x="138" y="279"/>
      <point x="120" y="234" type="curve" smooth="yes"/>
      <point x="105" y="199"/>
      <point x="99" y="158"/>
      <point x="99" y="122" type="curve" smooth="yes"/>
      <point x="99" y="94"/>
      <point x="105" y="54"/>
      <point x="137" y="27" type="curve" smooth="yes"/>
      <point x="156" y="11"/>
      <point x="184" y="0"/>
      <point x="225" y="0" type="curve" smooth="yes"/>
      <point x="264" y="0" type="line"/>
      <point x="262" y="-15"/>
      <point x="256" y="-31"/>
      <point x="248" y="-46" type="curve" smooth="yes"/>
      <point x="225" y="-91"/>
      <point x="180" y="-133"/>
      <point x="130" y="-161" type="curve" smooth="yes"/>
      <point x="96" y="-180"/>
      <point x="52" y="-204"/>
      <point x="24" y="-219" type="curve" smooth="yes"/>
      <point x="-7" y="-236"/>
      <point x="-20" y="-242"/>
      <point x="-20" y="-242" type="curve"/>
      <point x="10" y="-285" type="line"/>
      <point x="29" y="-278"/>
      <point x="68" y="-274"/>
      <point x="92" y="-274" type="curve" smooth="yes"/>
      <point x="106" y="-274"/>
      <point x="125" y="-277"/>
      <point x="138" y="-277" type="curve" smooth="yes"/>
      <point x="180" y="-277"/>
      <point x="207" y="-269"/>
      <point x="232" y="-252" type="curve" smooth="yes"/>
      <point x="261" y="-232"/>
      <point x="293" y="-195"/>
      <point x="314" y="-133" type="curve" smooth="yes"/>
      <point x="327" y="-98"/>
      <point x="335" y="-54"/>
      <point x="338" y="0" type="curve"/>
      <point x="457" y="0" type="line"/>
      <point x="457" y="139" type="line"/>
    </contour>
    <contour>
      <point x="254" y="181"/>
      <point x="260" y="162"/>
      <point x="262" y="138" type="curve"/>
      <point x="213" y="138" type="line" smooth="yes"/>
      <point x="165" y="138"/>
      <point x="151" y="150"/>
      <point x="151" y="178" type="curve" smooth="yes"/>
      <point x="151" y="193"/>
      <point x="166" y="221"/>
      <point x="200" y="221" type="curve" smooth="yes"/>
      <point x="220" y="221"/>
      <point x="235" y="212"/>
      <point x="246" y="195" type="curve" smooth="yes"/>
    </contour>
    <contour>
      <point x="145" y="546" type="move" name="top"/>
    </contour>
    <contour>
      <point x="93" y="-65" type="move" name="center"/>
    </contour>
    <contour>
      <point x="118" y="-307" type="move" name="bottom"/>
    </contour>
  </outline>
</glyph>
